<?xml version="1.0" encoding="UTF-8" standalone="no"?>
<!DOCTYPE svg PUBLIC "-//W3C//DTD SVG 1.1//EN" "http://www.w3.org/Graphics/SVG/1.1/DTD/svg11.dtd">
<svg xmlns="http://www.w3.org/2000/svg" xmlns:xlink="http://www.w3.org/1999/xlink" version="1.1" width="149.001pt" height="89.3168pt" viewBox="0 0 149.001 89.3168">
<g enable-background="new">
<g id="Layer-1" data-name="Layer">
<path transform="matrix(1,0,0,-1,10.9556,50.851305)" d="M 0 0 L -4.808 -12.889 L -1.372 -12.889 L -.558 -10.577 L 3.929 -10.577 L 4.725 -12.889 L 8.217 -12.889 L 3.411 0 Z M 1.68 -3.57 L 1.71 -3.57 L 3.133 -8.088 L .221 -8.088 Z " fill="#04357a"/>
<path transform="matrix(1,0,0,-1,0,89.3168)" d="M 24.472 25.578 L 21.408 25.578 L 21.408 34.945 L 24.472 34.945 Z M 21.408 38.465 L 24.472 38.465 L 24.472 36.119 L 21.408 36.119 Z " fill="#04357a"/>
<clipPath id="cp0">
<path transform="matrix(1,0,0,-1,0,89.3168)" d="M 6.149 5.137 L 142.853 5.137 L 142.853 84.179 L 6.149 84.179 Z "/>
</clipPath>
<g clip-path="url(#cp0)">
<path transform="matrix(1,0,0,-1,30.75,63.740007)" d="M 0 0 L -3.064 0 L -3.064 9.367 L -.091 9.367 L -.091 7.727 L -.059 7.727 C .4 8.942 1.338 9.55 2.759 9.55 C 3.031 9.55 3.274 9.527 3.477 9.479 L 3.477 6.679 C 3.031 6.8 2.645 6.857 2.304 6.857 C 1.586 6.857 1.017 6.643 .61 6.212 C .204 5.785 0 5.263 0 4.639 Z " fill="#04357a"/>
<path transform="matrix(1,0,0,-1,43.519,58.957704)" d="M 0 0 C 0 .687 -.128 1.253 -.394 1.696 C -.717 2.238 -1.191 2.516 -1.812 2.516 C -2.314 2.516 -2.728 2.336 -3.058 1.99 C -3.477 1.539 -3.689 .882 -3.689 0 C -3.689 -1.806 -3.068 -2.701 -1.833 -2.701 C -1.21 -2.701 -.729 -2.419 -.394 -1.841 C -.128 -1.346 0 -.733 0 0 M -3.585 -7.923 L -6.646 -7.923 L -6.646 4.584 L -3.725 4.584 L -3.725 3.506 L -3.689 3.506 C -3.075 4.403 -2.219 4.859 -1.112 4.859 C .27 4.859 1.331 4.327 2.074 3.267 C 2.741 2.332 3.065 1.139 3.065 -.309 C 3.065 -1.616 2.741 -2.716 2.092 -3.592 C 1.362 -4.565 .372 -5.055 -.881 -5.055 C -2.02 -5.055 -2.908 -4.628 -3.542 -3.772 L -3.585 -3.772 Z " fill="#04357a"/>
<path transform="matrix(1,0,0,-1,53.9771,56.443105)" d="M 0 0 C -.649 0 -1.136 -.29 -1.462 -.87 C -1.724 -1.327 -1.859 -1.91 -1.859 -2.622 C -1.859 -3.333 -1.724 -3.917 -1.462 -4.373 C -1.136 -4.935 -.649 -5.217 0 -5.217 C .648 -5.217 1.14 -4.935 1.472 -4.373 C 1.741 -3.905 1.871 -3.319 1.871 -2.622 C 1.871 -1.924 1.741 -1.342 1.472 -.87 C 1.14 -.29 .648 0 0 0 M 0 -7.57 C -1.442 -7.57 -2.624 -7.095 -3.55 -6.157 C -4.463 -5.217 -4.924 -4.039 -4.924 -2.622 C -4.924 -1.201 -4.463 -.021 -3.55 .919 C -2.624 1.866 -1.442 2.345 0 2.345 C 1.438 2.345 2.617 1.866 3.55 .919 C 4.472 -.021 4.935 -1.201 4.935 -2.622 C 4.935 -4.039 4.472 -5.217 3.55 -6.157 C 2.617 -7.095 1.438 -7.57 0 -7.57 " fill="#04357a"/>
<path transform="matrix(1,0,0,-1,64.7324,63.740007)" d="M 0 0 L -3.062 0 L -3.062 9.367 L -.088 9.367 L -.088 7.727 L -.059 7.727 C .404 8.942 1.344 9.55 2.756 9.55 C 3.031 9.55 3.272 9.527 3.477 9.479 L 3.477 6.679 C 3.031 6.8 2.638 6.857 2.304 6.857 C 1.584 6.857 1.023 6.643 .612 6.212 C .205 5.785 0 5.263 0 4.639 Z " fill="#04357a"/>
<path transform="matrix(1,0,0,-1,74.502,54.372804)" d="M 0 0 L 1.893 0 L 1.893 -1.985 L 0 -1.985 L 0 -6.242 C 0 -6.847 .367 -7.152 1.097 -7.152 C 1.182 -7.152 1.315 -7.142 1.476 -7.126 C 1.658 -7.117 1.79 -7.105 1.893 -7.105 L 1.893 -9.368 C 1.743 -9.368 1.472 -9.387 1.063 -9.418 C .702 -9.447 .418 -9.455 .215 -9.455 C -1.083 -9.455 -1.95 -9.227 -2.395 -8.769 C -2.835 -8.314 -3.059 -7.443 -3.059 -6.155 L -3.059 -1.985 L -4.613 -1.985 L -4.613 0 L -3.059 0 L -3.059 2.839 L 0 2.839 Z " fill="#04357a"/>
<path transform="matrix(1,0,0,-1,83.0752,64.012409)" d="M 0 0 C -1.278 0 -2.307 .232 -3.075 .708 C -4.035 1.274 -4.534 2.151 -4.573 3.358 L -1.65 3.358 C -1.65 2.914 -1.489 2.562 -1.145 2.313 C -.86 2.098 -.48 1.987 -.016 1.987 C .35 1.987 .657 2.06 .927 2.205 C 1.262 2.388 1.429 2.645 1.429 2.979 C 1.429 3.294 1.249 3.534 .893 3.7 C .754 3.75 .435 3.844 -.065 3.975 C -.728 4.116 -1.389 4.268 -2.045 4.425 C -2.788 4.629 -3.345 4.904 -3.705 5.24 C -4.173 5.672 -4.408 6.276 -4.408 7.045 C -4.408 8.069 -3.928 8.821 -2.97 9.318 C -2.212 9.711 -1.271 9.912 -.139 9.912 C 2.65 9.912 4.082 8.903 4.17 6.877 L 1.341 6.877 C 1.341 7.581 .884 7.923 -.029 7.923 C -.907 7.923 -1.348 7.694 -1.348 7.221 C -1.348 6.85 -.942 6.548 -.139 6.323 C .605 6.175 1.356 6.022 2.115 5.867 C 2.957 5.69 3.588 5.316 4.004 4.746 C 4.332 4.316 4.497 3.85 4.497 3.343 C 4.497 2.186 4.004 1.315 3.032 .723 C 2.238 .244 1.231 0 0 0 " fill="#04357a"/>
<path transform="matrix(1,0,0,-1,0,89.3168)" d="M 6.148 42.193 L 48.05 42.193 L 48.05 84.179 L 6.148 84.179 Z " fill="#04357a"/>
<path transform="matrix(1,0,0,-1,14.7896,22.464104)" d="M 0 0 L 1.107 0 C 2.421 4.896 3.758 7.996 9.322 7.58 L 9.322 -17.077 L 5.996 -17.077 L 5.996 -18.281 L 19.42 -18.281 L 19.42 -17.077 L 16.101 -17.077 L 16.101 7.58 C 21.662 7.996 22.999 4.896 24.337 0 L 25.424 0 L 25.007 8.805 L .412 8.805 Z " fill="#ffffff"/>
<path transform="matrix(1,0,0,-1,0,89.3168)" d="M 100.95 42.193 L 142.85199 42.193 L 142.85199 84.179 L 100.95 84.179 Z " fill="#04357a"/>
<path transform="matrix(1,0,0,-1,0,89.3168)" d="M 53.551 42.193 L 95.453 42.193 L 95.453 84.179 L 53.551 84.179 Z " fill="#04357a"/>
<path transform="matrix(1,0,0,-1,108.8896,14.2883)" d="M 0 0 L 2.307 0 L 13.032 -26.457 L 14.274 -26.457 L 21.826 -4.668 C 23.371 -.23 23.783 0 24.756 0 L 26.411 0 L 26.411 1.227 L 17.969 1.227 L 17.969 0 L 19.33 0 C 21.593 0 21.757 -.555 21.634 -.875 L 16.195 -16.661 L 9.436 0 L 12.547 0 L 12.547 1.227 L 0 1.227 Z " fill="#ffffff"/>
<path transform="matrix(1,0,0,-1,70.7515,30.416703)" d="M 0 0 L 2.568 6.886 L 5.081 0 Z M 15.344 -9.127 L 5.31 17.354 L 3.717 17.354 L -5.834 -7.946 C -6.271 -9.171 -8.046 -9.127 -9.015 -9.127 L -9.015 -10.328 L -.646 -10.328 L -.646 -9.127 C -1.217 -9.127 -4.288 -9.453 -4.288 -8.433 C -4.288 -8.063 -3.92 -6.889 -3.479 -5.68 L -2.417 -2.754 L 5.865 -2.754 L 8.054 -9.127 L 4.943 -9.127 L 4.943 -10.328 L 17.771 -10.328 L 17.771 -9.127 Z " fill="#ffffff"/>
<path transform="matrix(1,0,0,-1,11.3408,79.4792)" d="M 0 0 L -1.299 3.004 L -2.586 0 Z M -1.888 4.581 L -.665 4.581 L 2.639 -2.982 L 1.244 -2.982 L .483 -1.169 L -3.069 -1.169 L -3.84 -2.982 L -5.192 -2.982 Z " fill="#04357a"/>
<path transform="matrix(1,0,0,-1,17.2627,76.7976)" d="M 0 0 L 1.299 0 L 1.299 -.857 C 1.663 -.354 2.157 .118 3.026 .118 C 3.841 .118 4.421 -.278 4.721 -.879 C 5.172 -.278 5.772 .118 6.631 .118 C 7.864 .118 8.616 -.664 8.616 -2.048 L 8.616 -5.665 L 7.317 -5.665 L 7.317 -2.446 C 7.317 -1.545 6.899 -1.062 6.17 -1.062 C 5.461 -1.062 4.958 -1.555 4.958 -2.468 L 4.958 -5.665 L 3.659 -5.665 L 3.659 -2.435 C 3.659 -1.555 3.229 -1.062 2.51 -1.062 C 1.792 -1.062 1.299 -1.599 1.299 -2.468 L 1.299 -5.665 L 0 -5.665 Z " fill="#04357a"/>
<path transform="matrix(1,0,0,-1,31.2939,79.2322)" d="M 0 0 C -.086 .836 -.58 1.491 -1.437 1.491 C -2.232 1.491 -2.79 .879 -2.908 0 Z M -4.195 -.419 L -4.195 -.397 C -4.195 1.224 -3.047 2.553 -1.427 2.553 C .376 2.553 1.287 1.137 1.287 -.493 C 1.287 -.611 1.277 -.729 1.266 -.859 L -2.897 -.859 C -2.758 -1.782 -2.103 -2.297 -1.266 -2.297 C -.633 -2.297 -.183 -2.061 .268 -1.62 L 1.029 -2.297 C .493 -2.939 -.247 -3.359 -1.288 -3.359 C -2.929 -3.359 -4.195 -2.167 -4.195 -.419 " fill="#04357a"/>
<path transform="matrix(1,0,0,-1,33.8242,76.7976)" d="M 0 0 L 1.299 0 L 1.299 -.857 C 1.664 -.354 2.157 .118 3.026 .118 C 3.841 .118 4.421 -.278 4.721 -.879 C 5.172 -.278 5.772 .118 6.631 .118 C 7.865 .118 8.616 -.664 8.616 -2.048 L 8.616 -5.665 L 7.317 -5.665 L 7.317 -2.446 C 7.317 -1.545 6.899 -1.062 6.17 -1.062 C 5.461 -1.062 4.958 -1.555 4.958 -2.468 L 4.958 -5.665 L 3.659 -5.665 L 3.659 -2.435 C 3.659 -1.555 3.229 -1.062 2.51 -1.062 C 1.792 -1.062 1.299 -1.599 1.299 -2.468 L 1.299 -5.665 L 0 -5.665 Z " fill="#04357a"/>
<path transform="matrix(1,0,0,-1,48.5195,79.6404)" d="M 0 0 L 0 .021 C 0 1.116 -.741 1.835 -1.62 1.835 C -2.5 1.835 -3.272 1.105 -3.272 .021 L -3.272 0 C -3.272 -1.083 -2.5 -1.813 -1.62 -1.813 C -.729 -1.813 0 -1.115 0 0 M -3.24 -1.941 L -3.24 -2.822 L -4.538 -2.822 L -4.538 5.011 L -3.24 5.011 L -3.24 1.9 C -2.822 2.489 -2.231 2.961 -1.309 2.961 C .022 2.961 1.319 1.91 1.319 .021 L 1.319 0 C 1.319 -1.877 .032 -2.939 -1.309 -2.939 C -2.253 -2.939 -2.842 -2.468 -3.24 -1.941 " fill="#04357a"/>
<path transform="matrix(1,0,0,-1,54.9902,79.2322)" d="M 0 0 C -.085 .836 -.58 1.491 -1.437 1.491 C -2.232 1.491 -2.79 .879 -2.908 0 Z M -4.195 -.419 L -4.195 -.397 C -4.195 1.224 -3.048 2.553 -1.427 2.553 C .376 2.553 1.287 1.137 1.287 -.493 C 1.287 -.611 1.277 -.729 1.267 -.859 L -2.896 -.859 C -2.758 -1.782 -2.104 -2.297 -1.266 -2.297 C -.633 -2.297 -.183 -2.061 .268 -1.62 L 1.03 -2.297 C .493 -2.939 -.247 -3.359 -1.288 -3.359 C -2.929 -3.359 -4.195 -2.167 -4.195 -.419 " fill="#04357a"/>
<path transform="matrix(1,0,0,-1,57.5205,76.7976)" d="M 0 0 L 1.299 0 L 1.299 -1.276 C 1.652 -.429 2.307 .15 3.304 .107 L 3.304 -1.266 L 3.229 -1.266 C 2.092 -1.266 1.299 -2.006 1.299 -3.508 L 1.299 -5.665 L 0 -5.665 Z " fill="#04357a"/>
<path transform="matrix(1,0,0,-1,68.5283,79.661808)" d="M 0 0 L 0 .021 C 0 1.02 -.719 1.846 -1.738 1.846 C -2.779 1.846 -3.444 1.03 -3.444 .043 L -3.444 .021 C -3.444 -.966 -2.726 -1.792 -1.717 -1.792 C -.665 -1.792 0 -.976 0 0 M -4.743 0 L -4.743 .021 C -4.743 1.642 -3.455 2.982 -1.717 2.982 C .021 2.982 1.297 1.664 1.297 .043 L 1.297 .021 C 1.297 -1.587 .01 -2.929 -1.738 -2.929 C -3.465 -2.929 -4.743 -1.61 -4.743 0 " fill="#04357a"/>
<path transform="matrix(1,0,0,-1,71.2178,77.9128)" d="M 0 0 L -.719 0 L -.719 1.084 L 0 1.084 L 0 1.502 C 0 2.125 .161 2.596 .461 2.897 C .761 3.197 1.181 3.347 1.739 3.347 C 2.188 3.347 2.5 3.283 2.789 3.197 L 2.789 2.104 C 2.533 2.189 2.307 2.243 2.028 2.243 C 1.534 2.243 1.277 1.975 1.277 1.384 L 1.277 1.072 L 2.779 1.072 L 2.779 0 L 1.298 0 L 1.298 -4.55 L 0 -4.55 Z " fill="#04357a"/>
<path transform="matrix(1,0,0,-1,77.4619,78.7283)" d="M 0 0 L 0 .021 C 0 2.125 1.608 3.905 3.873 3.905 C 5.183 3.905 5.986 3.541 6.76 2.886 L 5.922 1.889 C 5.344 2.382 4.774 2.693 3.82 2.693 C 2.437 2.693 1.384 1.48 1.384 .043 L 1.384 .021 C 1.384 -1.523 2.403 -2.661 3.938 -2.661 C 4.646 -2.661 5.289 -2.435 5.75 -2.092 L 5.75 -.687 L 3.83 -.687 L 3.83 .461 L 7.027 .461 L 7.027 -2.692 C 6.287 -3.327 5.225 -3.862 3.895 -3.862 C 1.545 -3.862 0 -2.189 0 0 " fill="#04357a"/>
<path transform="matrix(1,0,0,-1,86.1025,76.7976)" d="M 0 0 L 1.299 0 L 1.299 -1.276 C 1.652 -.429 2.307 .15 3.305 .107 L 3.305 -1.266 L 3.229 -1.266 C 2.092 -1.266 1.299 -2.006 1.299 -3.508 L 1.299 -5.665 L 0 -5.665 Z " fill="#04357a"/>
<path transform="matrix(1,0,0,-1,94.7676,79.661808)" d="M 0 0 L 0 .021 C 0 1.02 -.72 1.846 -1.739 1.846 C -2.779 1.846 -3.444 1.03 -3.444 .043 L -3.444 .021 C -3.444 -.966 -2.725 -1.792 -1.717 -1.792 C -.665 -1.792 0 -.976 0 0 M -4.743 0 L -4.743 .021 C -4.743 1.642 -3.456 2.982 -1.717 2.982 C .021 2.982 1.299 1.664 1.299 .043 L 1.299 .021 C 1.299 -1.587 .01 -2.929 -1.739 -2.929 C -3.466 -2.929 -4.743 -1.61 -4.743 0 " fill="#04357a"/>
<path transform="matrix(1,0,0,-1,97.249,80.4021)" d="M 0 0 L 0 3.605 L 1.299 3.605 L 1.299 .387 C 1.299 -.493 1.738 -.987 2.51 -.987 C 3.261 -.987 3.786 -.473 3.786 .408 L 3.786 3.605 L 5.096 3.605 L 5.096 -2.06 L 3.786 -2.06 L 3.786 -1.181 C 3.422 -1.717 2.896 -2.178 2.017 -2.178 C .739 -2.178 0 -1.319 0 0 " fill="#04357a"/>
<path transform="matrix(1,0,0,-1,108.4375,79.6404)" d="M 0 0 L 0 .021 C 0 1.116 -.74 1.835 -1.62 1.835 C -2.499 1.835 -3.272 1.105 -3.272 .021 L -3.272 0 C -3.272 -1.083 -2.499 -1.813 -1.62 -1.813 C -.729 -1.813 0 -1.115 0 0 M -4.538 2.843 L -3.24 2.843 L -3.24 1.9 C -2.822 2.489 -2.231 2.961 -1.309 2.961 C .022 2.961 1.319 1.91 1.319 .021 L 1.319 0 C 1.319 -1.877 .032 -2.939 -1.309 -2.939 C -2.253 -2.939 -2.843 -2.468 -3.24 -1.941 L -3.24 -4.538 L -4.538 -4.538 Z " fill="#04357a"/>
<path transform="matrix(1,0,0,-1,114.9082,79.2322)" d="M 0 0 C -.087 .836 -.579 1.491 -1.438 1.491 C -2.231 1.491 -2.789 .879 -2.907 0 Z M -4.195 -.419 L -4.195 -.397 C -4.195 1.224 -3.048 2.553 -1.427 2.553 C .376 2.553 1.287 1.137 1.287 -.493 C 1.287 -.611 1.277 -.729 1.266 -.859 L -2.897 -.859 C -2.758 -1.782 -2.104 -2.297 -1.268 -2.297 C -.633 -2.297 -.183 -2.061 .268 -1.62 L 1.029 -2.297 C .493 -2.939 -.247 -3.359 -1.287 -3.359 C -2.93 -3.359 -4.195 -2.167 -4.195 -.419 " fill="#04357a"/>
<path transform="matrix(1,0,0,-1,124.8857,79.4792)" d="M 0 0 L -1.299 3.004 L -2.586 0 Z M -1.889 4.581 L -.665 4.581 L 2.64 -2.982 L 1.244 -2.982 L .482 -1.169 L -3.069 -1.169 L -3.842 -2.982 L -5.192 -2.982 Z " fill="#04357a"/>
<path transform="matrix(1,0,0,-1,130.0195,76.15311)" d="M 0 0 L 0 -5.107 L 1.48 -5.107 C 3.057 -5.107 4.086 -4.045 4.086 -2.575 L 4.086 -2.553 C 4.086 -1.084 3.057 0 1.48 0 Z M -1.321 1.201 L 1.48 1.201 C 3.84 1.201 5.472 -.418 5.472 -2.533 L 5.472 -2.553 C 5.472 -4.668 3.84 -6.31 1.48 -6.31 L -1.321 -6.31 Z " fill="#04357a"/>
<path transform="matrix(1,0,0,-1,139.8926,78.8572)" d="M 0 0 C .997 0 1.62 .558 1.62 1.342 L 1.62 1.363 C 1.62 2.243 .987 2.704 0 2.704 L -1.534 2.704 L -1.534 0 Z M -2.854 3.905 L .106 3.905 C 1.867 3.905 2.961 2.907 2.961 1.396 L 2.961 1.374 C 2.961 -.312 1.61 -1.19 -.043 -1.19 L -1.534 -1.19 L -1.534 -3.605 L -2.854 -3.605 Z " fill="#04357a"/>
</g>
</g>
</g>
</svg>
